<svg xmlns="http://www.w3.org/2000/svg" width="128" height="128" version="1" viewBox="0 0 8 8"><path fill="#f7941e" d="M 1 1 H 7 V 7 H 1 z"/><path fill="#fdb813" d="M 0 0 H 2 L 4 1 L 1 4 L 0 2 z"/><path fill="#faa61a" d="M 1 4 L 4 7 L 2 8 H 0 V 6 z"/><path fill="#f58220" d="M 4 1 L 6 0 H 8 V 2 L 7 4 z"/><path fill="#f36f21" d="M 7 4 L 8 6 V 8 H 6 L 4 7 z"/><path fill="#fff200" d="M 0 0 L 1 4 L 0 8 V 6 L 1 4 L 0 2 z"/><path fill="#ffcb08" d="M 0 0 L 4 1 L 8 0 H 6 L 4 1 L 2 0 z"/><path fill="#f15922" d="M 8 0 V 2 L 7 4 L 8 6 V 8 L 7 4 z"/><path fill="#f68b2d" d="M 0 8 H 2 L 4 7 L 6 8 H 8 L 4 7 z"/></svg>